<?xml version="1.0" encoding="UTF-8" standalone="no"?>
<!DOCTYPE svg PUBLIC "-//W3C//DTD SVG 1.1//EN"
 "http://www.w3.org/Graphics/SVG/1.1/DTD/svg11.dtd">
<!-- Generated by graphviz version 2.43.0 (0)
 -->
<!-- Title: G Pages: 1 -->
<svg width="1022pt" height="515pt"
 viewBox="0.00 0.00 1022.00 515.00" xmlns="http://www.w3.org/2000/svg" xmlns:xlink="http://www.w3.org/1999/xlink">
<g id="graph0" class="graph" transform="scale(1 1) rotate(0) translate(4 511)">
<title>G</title>
<polygon fill="white" stroke="transparent" points="-4,4 -4,-511 1018,-511 1018,4 -4,4"/>
<g id="clust1" class="cluster">
<title>cluster_root</title>
<g id="a_clust1"><a xlink:title="eventq_index=0&#10;full_system=false&#10;sim_quantum=0&#10;time_sync_enable=false&#10;time_sync_period=100000000000&#10;time_sync_spin_threshold=100000000">
<path fill="#bab6ae" stroke="#000000" d="M20,-8C20,-8 994,-8 994,-8 1000,-8 1006,-14 1006,-20 1006,-20 1006,-487 1006,-487 1006,-493 1000,-499 994,-499 994,-499 20,-499 20,-499 14,-499 8,-493 8,-487 8,-487 8,-20 8,-20 8,-14 14,-8 20,-8"/>
<text text-anchor="middle" x="507" y="-483.8" font-family="Arial" font-size="14.00" fill="#000000">root </text>
<text text-anchor="middle" x="507" y="-468.8" font-family="Arial" font-size="14.00" fill="#000000">: Root</text>
</a>
</g>
</g>
<g id="clust2" class="cluster">
<title>cluster_system</title>
<g id="a_clust2"><a xlink:title="byte_order=little&#10;cache_line_size=64&#10;eventq_index=0&#10;exit_on_work_items=false&#10;init_param=0&#10;kvm_vm=Null&#10;m5ops_base=4294901760&#10;mem_mode=atomic&#10;mem_ranges=0:536870912&#10;memories=system.mem_ctrls.dram&#10;mmap_using_noreserve=false&#10;multi_thread=false&#10;&#10;um_work_ids=16&#10;&#13;eadfile=&#10;&#13;edirect_paths=system.redirect_paths0 system.redirect_paths1 system.redirect_paths2&#10;shared_backstore=&#10;symbolfile=&#10;thermal_components=&#10;thermal_model=Null&#10;work_begin_ckpt_count=0&#10;work_begin_cpu_id_exit=&#45;1&#10;work_begin_exit_count=0&#10;work_cpus_ckpt_count=0&#10;work_end_ckpt_count=0&#10;work_end_exit_count=0&#10;work_item_id=&#45;1&#10;workload=Null">
<path fill="#e4e7eb" stroke="#000000" d="M28,-16C28,-16 986,-16 986,-16 992,-16 998,-22 998,-28 998,-28 998,-441 998,-441 998,-447 992,-453 986,-453 986,-453 28,-453 28,-453 22,-453 16,-447 16,-441 16,-441 16,-28 16,-28 16,-22 22,-16 28,-16"/>
<text text-anchor="middle" x="507" y="-437.8" font-family="Arial" font-size="14.00" fill="#000000">system </text>
<text text-anchor="middle" x="507" y="-422.8" font-family="Arial" font-size="14.00" fill="#000000">: System</text>
</a>
</g>
</g>
<g id="clust4" class="cluster">
<title>cluster_system_cpu</title>
<g id="a_clust4"><a xlink:title="branchPred=Null&#10;checker=Null&#10;clk_domain=system.cpu_clk_domain&#10;cpu_id=0&#10;do_checkpoint_insts=true&#10;do_statistics_insts=true&#10;dtb=system.cpu.dtb&#10;eventq_index=0&#10;function_trace=false&#10;function_trace_start=0&#10;interrupts=system.cpu.interrupts&#10;isa=system.cpu.isa&#10;itb=system.cpu.itb&#10;max_insts_all_threads=0&#10;max_insts_any_thread=0&#10;&#10;umThreads=1&#10;power_gating_on_idle=false&#10;power_model=&#10;power_state=system.cpu.power_state&#10;progress_interval=0&#10;pwr_gating_latency=300&#10;simpoint_start_insts=&#10;simulate_data_stalls=false&#10;simulate_inst_stalls=false&#10;socket_id=0&#10;switched_out=false&#10;syscallRetryLatency=10000&#10;system=system&#10;tracer=system.cpu.tracer&#10;wait_for_remote_gdb=false&#10;width=1&#10;workload=system.cpu.workload">
<path fill="#bbc6d9" stroke="#000000" d="M36,-24C36,-24 886,-24 886,-24 892,-24 898,-30 898,-36 898,-36 898,-211 898,-211 898,-217 892,-223 886,-223 886,-223 36,-223 36,-223 30,-223 24,-217 24,-211 24,-211 24,-36 24,-36 24,-30 30,-24 36,-24"/>
<text text-anchor="middle" x="461" y="-207.8" font-family="Arial" font-size="14.00" fill="#000000">cpu </text>
<text text-anchor="middle" x="461" y="-192.8" font-family="Arial" font-size="14.00" fill="#000000">: AtomicSimpleCPU</text>
</a>
</g>
</g>
<g id="clust5" class="cluster">
<title>cluster_system_cpu_dtb</title>
<g id="a_clust5"><a xlink:title="eventq_index=0&#10;size=64&#10;system=system&#10;walker=system.cpu.dtb.walker">
<path fill="#bab6ae" stroke="#000000" d="M735,-32C735,-32 878,-32 878,-32 884,-32 890,-38 890,-44 890,-44 890,-165 890,-165 890,-171 884,-177 878,-177 878,-177 735,-177 735,-177 729,-177 723,-171 723,-165 723,-165 723,-44 723,-44 723,-38 729,-32 735,-32"/>
<text text-anchor="middle" x="806.5" y="-161.8" font-family="Arial" font-size="14.00" fill="#000000">dtb </text>
<text text-anchor="middle" x="806.5" y="-146.8" font-family="Arial" font-size="14.00" fill="#000000">: X86TLB</text>
</a>
</g>
</g>
<g id="clust6" class="cluster">
<title>cluster_system_cpu_dtb_walker</title>
<g id="a_clust6"><a xlink:title="clk_domain=system.cpu_clk_domain&#10;eventq_index=0&#10;&#10;um_squash_per_cycle=4&#10;power_model=&#10;power_state=system.cpu.dtb.walker.power_state&#10;system=system">
<path fill="#9f9c95" stroke="#000000" d="M743,-40C743,-40 870,-40 870,-40 876,-40 882,-46 882,-52 882,-52 882,-119 882,-119 882,-125 876,-131 870,-131 870,-131 743,-131 743,-131 737,-131 731,-125 731,-119 731,-119 731,-52 731,-52 731,-46 737,-40 743,-40"/>
<text text-anchor="middle" x="806.5" y="-115.8" font-family="Arial" font-size="14.00" fill="#000000">walker </text>
<text text-anchor="middle" x="806.5" y="-100.8" font-family="Arial" font-size="14.00" fill="#000000">: X86PagetableWalker</text>
</a>
</g>
</g>
<g id="clust8" class="cluster">
<title>cluster_system_cpu_itb</title>
<g id="a_clust8"><a xlink:title="eventq_index=0&#10;size=64&#10;system=system&#10;walker=system.cpu.itb.walker">
<path fill="#bab6ae" stroke="#000000" d="M560,-32C560,-32 703,-32 703,-32 709,-32 715,-38 715,-44 715,-44 715,-165 715,-165 715,-171 709,-177 703,-177 703,-177 560,-177 560,-177 554,-177 548,-171 548,-165 548,-165 548,-44 548,-44 548,-38 554,-32 560,-32"/>
<text text-anchor="middle" x="631.5" y="-161.8" font-family="Arial" font-size="14.00" fill="#000000">itb </text>
<text text-anchor="middle" x="631.5" y="-146.8" font-family="Arial" font-size="14.00" fill="#000000">: X86TLB</text>
</a>
</g>
</g>
<g id="clust9" class="cluster">
<title>cluster_system_cpu_itb_walker</title>
<g id="a_clust9"><a xlink:title="clk_domain=system.cpu_clk_domain&#10;eventq_index=0&#10;&#10;um_squash_per_cycle=4&#10;power_model=&#10;power_state=system.cpu.itb.walker.power_state&#10;system=system">
<path fill="#9f9c95" stroke="#000000" d="M568,-40C568,-40 695,-40 695,-40 701,-40 707,-46 707,-52 707,-52 707,-119 707,-119 707,-125 701,-131 695,-131 695,-131 568,-131 568,-131 562,-131 556,-125 556,-119 556,-119 556,-52 556,-52 556,-46 562,-40 568,-40"/>
<text text-anchor="middle" x="631.5" y="-115.8" font-family="Arial" font-size="14.00" fill="#000000">walker </text>
<text text-anchor="middle" x="631.5" y="-100.8" font-family="Arial" font-size="14.00" fill="#000000">: X86PagetableWalker</text>
</a>
</g>
</g>
<g id="clust15" class="cluster">
<title>cluster_system_cpu_interrupts</title>
<g id="a_clust15"><a xlink:title="clk_domain=system.cpu.interrupts.clk_domain&#10;eventq_index=0&#10;int_latency=1000&#10;pio_latency=100000&#10;system=system">
<path fill="#bab6ae" stroke="#000000" d="M250,-40C250,-40 528,-40 528,-40 534,-40 540,-46 540,-52 540,-52 540,-119 540,-119 540,-125 534,-131 528,-131 528,-131 250,-131 250,-131 244,-131 238,-125 238,-119 238,-119 238,-52 238,-52 238,-46 244,-40 250,-40"/>
<text text-anchor="middle" x="389" y="-115.8" font-family="Arial" font-size="14.00" fill="#000000">interrupts </text>
<text text-anchor="middle" x="389" y="-100.8" font-family="Arial" font-size="14.00" fill="#000000">: X86LocalApic</text>
</a>
</g>
</g>
<g id="clust21" class="cluster">
<title>cluster_system_membus</title>
<g id="a_clust21"><a xlink:title="clk_domain=system.clk_domain&#10;eventq_index=0&#10;forward_latency=4&#10;frontend_latency=3&#10;header_latency=1&#10;max_outstanding_snoops=512&#10;max_routing_table_size=512&#10;point_of_coherency=true&#10;point_of_unification=true&#10;power_model=&#10;power_state=system.membus.power_state&#10;&#13;esponse_latency=2&#10;snoop_filter=system.membus.snoop_filter&#10;snoop_response_latency=4&#10;system=system&#10;use_default_range=false&#10;width=16">
<path fill="#6f798c" stroke="#000000" d="M272,-231C272,-231 508,-231 508,-231 514,-231 520,-237 520,-243 520,-243 520,-310 520,-310 520,-316 514,-322 508,-322 508,-322 272,-322 272,-322 266,-322 260,-316 260,-310 260,-310 260,-243 260,-243 260,-237 266,-231 272,-231"/>
<text text-anchor="middle" x="390" y="-306.8" font-family="Arial" font-size="14.00" fill="#000000">membus </text>
<text text-anchor="middle" x="390" y="-291.8" font-family="Arial" font-size="14.00" fill="#000000">: SystemXBar</text>
</a>
</g>
</g>
<g id="clust24" class="cluster">
<title>cluster_system_mem_ctrls</title>
<g id="a_clust24"><a xlink:title="clk_domain=system.clk_domain&#10;command_window=10000&#10;dram=system.mem_ctrls.dram&#10;eventq_index=0&#10;mem_sched_policy=frfcfs&#10;min_writes_per_switch=16&#10;&#10;vm=Null&#10;power_model=&#10;power_state=system.mem_ctrls.power_state&#10;qos_policy=Null&#10;qos_priorities=1&#10;qos_priority_escalation=false&#10;qos_q_policy=fifo&#10;qos_requestors= &#160;&#160;&#160;&#160;&#160;&#160;&#160;&#160;&#160;&#160;&#160;&#160;&#160;&#160;&#10;qos_syncro_scheduler=false&#10;qos_turnaround_policy=Null&#10;static_backend_latency=10000&#10;static_frontend_latency=10000&#10;system=system&#10;write_high_thresh_perc=85&#10;write_low_thresh_perc=50">
<path fill="#bab6ae" stroke="#000000" d="M918,-40C918,-40 978,-40 978,-40 984,-40 990,-46 990,-52 990,-52 990,-119 990,-119 990,-125 984,-131 978,-131 978,-131 918,-131 918,-131 912,-131 906,-125 906,-119 906,-119 906,-52 906,-52 906,-46 912,-40 918,-40"/>
<text text-anchor="middle" x="948" y="-115.8" font-family="Arial" font-size="14.00" fill="#000000">mem_ctrls </text>
<text text-anchor="middle" x="948" y="-100.8" font-family="Arial" font-size="14.00" fill="#000000">: MemCtrl</text>
</a>
</g>
</g>
<!-- system_system_port -->
<g id="node1" class="node">
<title>system_system_port</title>
<path fill="#b6b8bc" stroke="#000000" d="M288.5,-370.5C288.5,-370.5 355.5,-370.5 355.5,-370.5 361.5,-370.5 367.5,-376.5 367.5,-382.5 367.5,-382.5 367.5,-394.5 367.5,-394.5 367.5,-400.5 361.5,-406.5 355.5,-406.5 355.5,-406.5 288.5,-406.5 288.5,-406.5 282.5,-406.5 276.5,-400.5 276.5,-394.5 276.5,-394.5 276.5,-382.5 276.5,-382.5 276.5,-376.5 282.5,-370.5 288.5,-370.5"/>
<text text-anchor="middle" x="322" y="-384.8" font-family="Arial" font-size="14.00" fill="#000000">system_port</text>
</g>
<!-- system_membus_cpu_side_ports -->
<g id="node9" class="node">
<title>system_membus_cpu_side_ports</title>
<path fill="#586070" stroke="#000000" d="M280,-239.5C280,-239.5 364,-239.5 364,-239.5 370,-239.5 376,-245.5 376,-251.5 376,-251.5 376,-263.5 376,-263.5 376,-269.5 370,-275.5 364,-275.5 364,-275.5 280,-275.5 280,-275.5 274,-275.5 268,-269.5 268,-263.5 268,-263.5 268,-251.5 268,-251.5 268,-245.5 274,-239.5 280,-239.5"/>
<text text-anchor="middle" x="322" y="-253.8" font-family="Arial" font-size="14.00" fill="#000000">cpu_side_ports</text>
</g>
<!-- system_system_port&#45;&gt;system_membus_cpu_side_ports -->
<g id="edge1" class="edge">
<title>system_system_port&#45;&gt;system_membus_cpu_side_ports</title>
<path fill="none" stroke="black" d="M322,-370.37C322,-348.78 322,-311.41 322,-285.85"/>
<polygon fill="black" stroke="black" points="325.5,-285.7 322,-275.7 318.5,-285.7 325.5,-285.7"/>
</g>
<!-- system_cpu_icache_port -->
<g id="node2" class="node">
<title>system_cpu_icache_port</title>
<path fill="#959ead" stroke="#000000" d="M154,-48.5C154,-48.5 216,-48.5 216,-48.5 222,-48.5 228,-54.5 228,-60.5 228,-60.5 228,-72.5 228,-72.5 228,-78.5 222,-84.5 216,-84.5 216,-84.5 154,-84.5 154,-84.5 148,-84.5 142,-78.5 142,-72.5 142,-72.5 142,-60.5 142,-60.5 142,-54.5 148,-48.5 154,-48.5"/>
<text text-anchor="middle" x="185" y="-62.8" font-family="Arial" font-size="14.00" fill="#000000">icache_port</text>
</g>
<!-- system_cpu_dcache_port -->
<g id="node3" class="node">
<title>system_cpu_dcache_port</title>
<path fill="#959ead" stroke="#000000" d="M44.5,-48.5C44.5,-48.5 111.5,-48.5 111.5,-48.5 117.5,-48.5 123.5,-54.5 123.5,-60.5 123.5,-60.5 123.5,-72.5 123.5,-72.5 123.5,-78.5 117.5,-84.5 111.5,-84.5 111.5,-84.5 44.5,-84.5 44.5,-84.5 38.5,-84.5 32.5,-78.5 32.5,-72.5 32.5,-72.5 32.5,-60.5 32.5,-60.5 32.5,-54.5 38.5,-48.5 44.5,-48.5"/>
<text text-anchor="middle" x="78" y="-62.8" font-family="Arial" font-size="14.00" fill="#000000">dcache_port</text>
</g>
<!-- system_cpu_dtb_walker_port -->
<g id="node4" class="node">
<title>system_cpu_dtb_walker_port</title>
<path fill="#7f7c77" stroke="#000000" d="M751,-48.5C751,-48.5 781,-48.5 781,-48.5 787,-48.5 793,-54.5 793,-60.5 793,-60.5 793,-72.5 793,-72.5 793,-78.5 787,-84.5 781,-84.5 781,-84.5 751,-84.5 751,-84.5 745,-84.5 739,-78.5 739,-72.5 739,-72.5 739,-60.5 739,-60.5 739,-54.5 745,-48.5 751,-48.5"/>
<text text-anchor="middle" x="766" y="-62.8" font-family="Arial" font-size="14.00" fill="#000000">port</text>
</g>
<!-- system_cpu_itb_walker_port -->
<g id="node5" class="node">
<title>system_cpu_itb_walker_port</title>
<path fill="#7f7c77" stroke="#000000" d="M576,-48.5C576,-48.5 606,-48.5 606,-48.5 612,-48.5 618,-54.5 618,-60.5 618,-60.5 618,-72.5 618,-72.5 618,-78.5 612,-84.5 606,-84.5 606,-84.5 576,-84.5 576,-84.5 570,-84.5 564,-78.5 564,-72.5 564,-72.5 564,-60.5 564,-60.5 564,-54.5 570,-48.5 576,-48.5"/>
<text text-anchor="middle" x="591" y="-62.8" font-family="Arial" font-size="14.00" fill="#000000">port</text>
</g>
<!-- system_cpu_interrupts_int_requestor -->
<g id="node6" class="node">
<title>system_cpu_interrupts_int_requestor</title>
<path fill="#94918b" stroke="#000000" d="M258.5,-48.5C258.5,-48.5 329.5,-48.5 329.5,-48.5 335.5,-48.5 341.5,-54.5 341.5,-60.5 341.5,-60.5 341.5,-72.5 341.5,-72.5 341.5,-78.5 335.5,-84.5 329.5,-84.5 329.5,-84.5 258.5,-84.5 258.5,-84.5 252.5,-84.5 246.5,-78.5 246.5,-72.5 246.5,-72.5 246.5,-60.5 246.5,-60.5 246.5,-54.5 252.5,-48.5 258.5,-48.5"/>
<text text-anchor="middle" x="294" y="-62.8" font-family="Arial" font-size="14.00" fill="#000000">int_requestor</text>
</g>
<!-- system_cpu_interrupts_int_responder -->
<g id="node7" class="node">
<title>system_cpu_interrupts_int_responder</title>
<path fill="#94918b" stroke="#000000" d="M444.5,-48.5C444.5,-48.5 519.5,-48.5 519.5,-48.5 525.5,-48.5 531.5,-54.5 531.5,-60.5 531.5,-60.5 531.5,-72.5 531.5,-72.5 531.5,-78.5 525.5,-84.5 519.5,-84.5 519.5,-84.5 444.5,-84.5 444.5,-84.5 438.5,-84.5 432.5,-78.5 432.5,-72.5 432.5,-72.5 432.5,-60.5 432.5,-60.5 432.5,-54.5 438.5,-48.5 444.5,-48.5"/>
<text text-anchor="middle" x="482" y="-62.8" font-family="Arial" font-size="14.00" fill="#000000">int_responder</text>
</g>
<!-- system_cpu_interrupts_pio -->
<g id="node8" class="node">
<title>system_cpu_interrupts_pio</title>
<path fill="#94918b" stroke="#000000" d="M372,-48.5C372,-48.5 402,-48.5 402,-48.5 408,-48.5 414,-54.5 414,-60.5 414,-60.5 414,-72.5 414,-72.5 414,-78.5 408,-84.5 402,-84.5 402,-84.5 372,-84.5 372,-84.5 366,-84.5 360,-78.5 360,-72.5 360,-72.5 360,-60.5 360,-60.5 360,-54.5 366,-48.5 372,-48.5"/>
<text text-anchor="middle" x="387" y="-62.8" font-family="Arial" font-size="14.00" fill="#000000">pio</text>
</g>
<!-- system_membus_cpu_side_ports&#45;&gt;system_cpu_icache_port -->
<g id="edge2" class="edge">
<title>system_membus_cpu_side_ports&#45;&gt;system_cpu_icache_port</title>
<path fill="none" stroke="black" d="M258.41,-240.37C249.35,-235.91 240.81,-230.22 234,-223 196.91,-183.67 187.89,-116.47 185.7,-84.88"/>
<polygon fill="black" stroke="black" points="257.03,-243.59 267.59,-244.44 259.87,-237.19 257.03,-243.59"/>
</g>
<!-- system_membus_cpu_side_ports&#45;&gt;system_cpu_dcache_port -->
<g id="edge3" class="edge">
<title>system_membus_cpu_side_ports&#45;&gt;system_cpu_dcache_port</title>
<path fill="none" stroke="black" d="M257.39,-251.95C210.26,-247.39 151.53,-238.71 133,-223 90.84,-187.26 80.99,-117.03 78.69,-84.62"/>
<polygon fill="black" stroke="black" points="257.28,-255.46 267.55,-252.89 257.92,-248.49 257.28,-255.46"/>
</g>
<!-- system_membus_cpu_side_ports&#45;&gt;system_cpu_dtb_walker_port -->
<g id="edge5" class="edge">
<title>system_membus_cpu_side_ports&#45;&gt;system_cpu_dtb_walker_port</title>
<path fill="none" stroke="black" d="M367.52,-235.86C373.31,-233.9 379.23,-232.2 385,-231 402.74,-227.32 696.34,-233.64 711,-223 755.96,-190.38 764.36,-117.9 765.8,-84.7"/>
<polygon fill="black" stroke="black" points="366.13,-232.64 357.95,-239.37 368.54,-239.22 366.13,-232.64"/>
</g>
<!-- system_membus_cpu_side_ports&#45;&gt;system_cpu_itb_walker_port -->
<g id="edge4" class="edge">
<title>system_membus_cpu_side_ports&#45;&gt;system_cpu_itb_walker_port</title>
<path fill="none" stroke="black" d="M367.77,-235.93C373.48,-233.97 379.32,-232.26 385,-231 402.27,-227.18 530.07,-233.9 544,-223 587.1,-189.29 591.87,-117.37 591.65,-84.51"/>
<polygon fill="black" stroke="black" points="366.49,-232.67 358.32,-239.41 368.91,-239.24 366.49,-232.67"/>
</g>
<!-- system_membus_cpu_side_ports&#45;&gt;system_cpu_interrupts_int_requestor -->
<g id="edge6" class="edge">
<title>system_membus_cpu_side_ports&#45;&gt;system_cpu_interrupts_int_requestor</title>
<path fill="none" stroke="black" d="M317.99,-229.41C312.14,-189.92 301.43,-117.66 296.55,-84.7"/>
<polygon fill="black" stroke="black" points="314.54,-230.02 319.47,-239.39 321.46,-228.99 314.54,-230.02"/>
</g>
<!-- system_membus_mem_side_ports -->
<g id="node10" class="node">
<title>system_membus_mem_side_ports</title>
<path fill="#586070" stroke="#000000" d="M406,-239.5C406,-239.5 500,-239.5 500,-239.5 506,-239.5 512,-245.5 512,-251.5 512,-251.5 512,-263.5 512,-263.5 512,-269.5 506,-275.5 500,-275.5 500,-275.5 406,-275.5 406,-275.5 400,-275.5 394,-269.5 394,-263.5 394,-263.5 394,-251.5 394,-251.5 394,-245.5 400,-239.5 406,-239.5"/>
<text text-anchor="middle" x="453" y="-253.8" font-family="Arial" font-size="14.00" fill="#000000">mem_side_ports</text>
</g>
<!-- system_membus_mem_side_ports&#45;&gt;system_cpu_interrupts_int_responder -->
<g id="edge8" class="edge">
<title>system_membus_mem_side_ports&#45;&gt;system_cpu_interrupts_int_responder</title>
<path fill="none" stroke="black" d="M455.62,-239.39C460.67,-206.52 471.76,-134.26 477.83,-94.7"/>
<polygon fill="black" stroke="black" points="481.3,-95.12 479.36,-84.7 474.38,-94.06 481.3,-95.12"/>
</g>
<!-- system_membus_mem_side_ports&#45;&gt;system_cpu_interrupts_pio -->
<g id="edge7" class="edge">
<title>system_membus_mem_side_ports&#45;&gt;system_cpu_interrupts_pio</title>
<path fill="none" stroke="black" d="M435.31,-239.24C431.08,-234.33 426.95,-228.75 424,-223 402.62,-181.29 393.35,-126.92 389.51,-94.76"/>
<polygon fill="black" stroke="black" points="392.98,-94.31 388.41,-84.76 386.03,-95.08 392.98,-94.31"/>
</g>
<!-- system_mem_ctrls_port -->
<g id="node11" class="node">
<title>system_mem_ctrls_port</title>
<path fill="#94918b" stroke="#000000" d="M926,-48.5C926,-48.5 956,-48.5 956,-48.5 962,-48.5 968,-54.5 968,-60.5 968,-60.5 968,-72.5 968,-72.5 968,-78.5 962,-84.5 956,-84.5 956,-84.5 926,-84.5 926,-84.5 920,-84.5 914,-78.5 914,-72.5 914,-72.5 914,-60.5 914,-60.5 914,-54.5 920,-48.5 926,-48.5"/>
<text text-anchor="middle" x="941" y="-62.8" font-family="Arial" font-size="14.00" fill="#000000">port</text>
</g>
<!-- system_membus_mem_side_ports&#45;&gt;system_mem_ctrls_port -->
<g id="edge9" class="edge">
<title>system_membus_mem_side_ports&#45;&gt;system_mem_ctrls_port</title>
<path fill="none" stroke="black" d="M512.22,-255.46C623.88,-252.99 857.02,-245.22 886,-223 925.85,-192.45 936.91,-130.79 939.93,-94.97"/>
<polygon fill="black" stroke="black" points="943.44,-94.97 940.63,-84.75 936.45,-94.49 943.44,-94.97"/>
</g>
</g>
</svg>
